<svg width="100" height="100" viewBox="0 0 100 100" fill="none" xmlns="http://www.w3.org/2000/svg" role="img" aria-labelledby="title desc">
  <title id="title">PayFlow logo</title>
  <desc id="desc">A minimal PayFlow monogram with a recovery signal node.</desc>
  <rect x="5" y="5" width="90" height="90" rx="22" fill="#F8F7F3"/>
  <rect x="5.5" y="5.5" width="89" height="89" rx="21.5" stroke="#D9D6CE"/>
  <path d="M30 72V27H52.8C63.2 27 70.5 33.9 70.5 43.7C70.5 53.4 63.2 60.1 52.8 60.1H42.6V72H30ZM42.6 49.3H51.5C55.3 49.3 57.8 47 57.8 43.7C57.8 40.2 55.3 37.9 51.5 37.9H42.6V49.3Z" fill="#18181B"/>
  <path d="M58 58C66.5 58 72.5 54.7 77.5 48.2" stroke="#3E8F68" stroke-width="5.5" stroke-linecap="round"/>
  <circle cx="79" cy="46" r="8" fill="#DFF3E8" stroke="#3E8F68" stroke-width="3"/>
  <circle cx="79" cy="46" r="2.8" fill="#3E8F68"/>
</svg>
